<mxfile host="app.diagrams.net" modified="2025-01-21T10:00:00.000Z" agent="5.0" etag="abc123" version="22.1.11" type="device">
  <diagram name="AWS Log Analytics Architecture" id="aws-log-analytics">
    <mxGraphModel dx="1422" dy="794" grid="1" gridSize="10" guides="1" tooltips="1" connect="1" arrows="1" fold="1" page="1" pageScale="1" pageWidth="1654" pageHeight="1169" math="0" shadow="0">
      <root>
        <mxCell id="0" />
        <mxCell id="1" parent="0" />

        <!-- Background AWS Cloud -->
        <mxCell id="aws-cloud" value="" style="sketch=0;outlineConnect=0;gradientColor=none;html=1;whiteSpace=wrap;fontSize=12;fontStyle=0;shape=mxgraph.aws4.group;grIcon=mxgraph.aws4.group_aws_cloud_alt;strokeColor=#232F3E;fillColor=none;verticalAlign=top;align=left;spacingLeft=30;fontColor=#232F3E;dashed=0;" vertex="1" parent="1">
          <mxGeometry x="40" y="40" width="1560" height="1080" as="geometry" />
        </mxCell>

        <!-- Data Generation Layer -->
        <mxCell id="generation-layer" value="Data Generation Layer" style="rounded=1;whiteSpace=wrap;html=1;fillColor=#e1d5e7;strokeColor=#9673a6;fontSize=14;fontStyle=1;" vertex="1" parent="1">
          <mxGeometry x="80" y="80" width="200" height="40" as="geometry" />
        </mxCell>

        <!-- EC2 Producer Instance -->
        <mxCell id="ec2-producer" value="EC2 Producer Instance&#xa;(m6i.xlarge)&#xa;Apache Log Generator" style="sketch=0;outlineConnect=0;fontColor=#232F3E;gradientColor=none;fillColor=#ED7100;strokeColor=none;dashed=0;verticalLabelPosition=bottom;verticalAlign=top;align=center;html=1;fontSize=12;fontStyle=0;aspect=fixed;pointerEvents=1;shape=mxgraph.aws4.ec2_instance;" vertex="1" parent="1">
          <mxGeometry x="140" y="140" width="78" height="78" as="geometry" />
        </mxCell>

        <!-- Security Group -->
        <mxCell id="security-group" value="Security Group" style="sketch=0;outlineConnect=0;fontColor=#232F3E;gradientColor=none;fillColor=#FF9900;strokeColor=none;dashed=0;verticalLabelPosition=bottom;verticalAlign=top;align=center;html=1;fontSize=12;fontStyle=0;aspect=fixed;pointerEvents=1;shape=mxgraph.aws4.security_group;" vertex="1" parent="1">
          <mxGeometry x="240" y="140" width="78" height="78" as="geometry" />
        </mxCell>

        <!-- Kinesis Agent -->
        <mxCell id="kinesis-agent" value="Kinesis Agent" style="rounded=1;whiteSpace=wrap;html=1;fillColor=#fff2cc;strokeColor=#d6b656;" vertex="1" parent="1">
          <mxGeometry x="140" y="240" width="78" height="30" as="geometry" />
        </mxCell>

        <!-- Data Ingestion Layer -->
        <mxCell id="ingestion-layer" value="Data Ingestion Layer" style="rounded=1;whiteSpace=wrap;html=1;fillColor=#dae8fc;strokeColor=#6c8ebf;fontSize=14;fontStyle=1;" vertex="1" parent="1">
          <mxGeometry x="400" y="80" width="200" height="40" as="geometry" />
        </mxCell>

        <!-- Kinesis Data Streams -->
        <mxCell id="kinesis-stream" value="Kinesis Data Streams&#xa;(ingestion-stream)&#xa;1 Shard, 24h retention" style="sketch=0;outlineConnect=0;fontColor=#232F3E;gradientColor=none;fillColor=#8C4FFF;strokeColor=none;dashed=0;verticalLabelPosition=bottom;verticalAlign=top;align=center;html=1;fontSize=12;fontStyle=0;aspect=fixed;pointerEvents=1;shape=mxgraph.aws4.kinesis_data_streams;" vertex="1" parent="1">
          <mxGeometry x="460" y="140" width="78" height="78" as="geometry" />
        </mxCell>

        <!-- Data Delivery Layer -->
        <mxCell id="delivery-layer" value="Data Delivery Layer" style="rounded=1;whiteSpace=wrap;html=1;fillColor=#f8cecc;strokeColor=#b85450;fontSize=14;fontStyle=1;" vertex="1" parent="1">
          <mxGeometry x="700" y="80" width="200" height="40" as="geometry" />
        </mxCell>

        <!-- Kinesis Data Firehose -->
        <mxCell id="kinesis-firehose" value="Kinesis Data Firehose&#xa;(delivery-firehose)&#xa;S3 Destination" style="sketch=0;outlineConnect=0;fontColor=#232F3E;gradientColor=none;fillColor=#8C4FFF;strokeColor=none;dashed=0;verticalLabelPosition=bottom;verticalAlign=top;align=center;html=1;fontSize=12;fontStyle=0;aspect=fixed;pointerEvents=1;shape=mxgraph.aws4.kinesis_data_firehose;" vertex="1" parent="1">
          <mxGeometry x="760" y="140" width="78" height="78" as="geometry" />
        </mxCell>

        <!-- Storage Layer -->
        <mxCell id="storage-layer" value="Storage Layer" style="rounded=1;whiteSpace=wrap;html=1;fillColor=#d5e8d4;strokeColor=#82b366;fontSize=14;fontStyle=1;" vertex="1" parent="1">
          <mxGeometry x="1000" y="80" width="200" height="40" as="geometry" />
        </mxCell>

        <!-- S3 Bucket -->
        <mxCell id="s3-bucket" value="S3 Bucket&#xa;Time-partitioned&#xa;data/year/month/day/hour/" style="sketch=0;outlineConnect=0;fontColor=#232F3E;gradientColor=none;fillColor=#7AA116;strokeColor=none;dashed=0;verticalLabelPosition=bottom;verticalAlign=top;align=center;html=1;fontSize=12;fontStyle=0;aspect=fixed;pointerEvents=1;shape=mxgraph.aws4.s3_bucket;" vertex="1" parent="1">
          <mxGeometry x="1060" y="140" width="78" height="78" as="geometry" />
        </mxCell>

        <!-- JAR Files -->
        <mxCell id="jar-files" value="JAR Files&#xa;(Flink Connectors)" style="sketch=0;outlineConnect=0;fontColor=#232F3E;gradientColor=none;fillColor=#7AA116;strokeColor=none;dashed=0;verticalLabelPosition=bottom;verticalAlign=top;align=center;html=1;fontSize=12;fontStyle=0;aspect=fixed;pointerEvents=1;shape=mxgraph.aws4.s3_object;" vertex="1" parent="1">
          <mxGeometry x="1160" y="140" width="78" height="78" as="geometry" />
        </mxCell>

        <!-- Analytics Layer -->
        <mxCell id="analytics-layer" value="Analytics Layer" style="rounded=1;whiteSpace=wrap;html=1;fillColor=#e1d5e7;strokeColor=#9673a6;fontSize=14;fontStyle=1;" vertex="1" parent="1">
          <mxGeometry x="400" y="350" width="200" height="40" as="geometry" />
        </mxCell>

        <!-- Kinesis Analytics / Zeppelin -->
        <mxCell id="zeppelin-notebook" value="Kinesis Analytics v2&#xa;Zeppelin Notebook&#xa;Flink 3.0 Runtime" style="sketch=0;outlineConnect=0;fontColor=#232F3E;gradientColor=none;fillColor=#8C4FFF;strokeColor=none;dashed=0;verticalLabelPosition=bottom;verticalAlign=top;align=center;html=1;fontSize=12;fontStyle=0;aspect=fixed;pointerEvents=1;shape=mxgraph.aws4.kinesis_data_analytics;" vertex="1" parent="1">
          <mxGeometry x="460" y="410" width="78" height="78" as="geometry" />
        </mxCell>

        <!-- Data Catalog Layer -->
        <mxCell id="catalog-layer" value="Data Catalog Layer" style="rounded=1;whiteSpace=wrap;html=1;fillColor=#fff2cc;strokeColor=#d6b656;fontSize=14;fontStyle=1;" vertex="1" parent="1">
          <mxGeometry x="700" y="350" width="200" height="40" as="geometry" />
        </mxCell>

        <!-- AWS Glue Data Catalog -->
        <mxCell id="glue-catalog" value="AWS Glue Data Catalog&#xa;Zeppelin Database&#xa;Hive Database" style="sketch=0;outlineConnect=0;fontColor=#232F3E;gradientColor=none;fillColor=#F58536;strokeColor=none;dashed=0;verticalLabelPosition=bottom;verticalAlign=top;align=center;html=1;fontSize=12;fontStyle=0;aspect=fixed;pointerEvents=1;shape=mxgraph.aws4.glue_data_catalog;" vertex="1" parent="1">
          <mxGeometry x="760" y="410" width="78" height="78" as="geometry" />
        </mxCell>

        <!-- Lake Formation -->
        <mxCell id="lake-formation" value="Lake Formation&#xa;Permissions" style="sketch=0;outlineConnect=0;fontColor=#232F3E;gradientColor=none;fillColor=#F58536;strokeColor=none;dashed=0;verticalLabelPosition=bottom;verticalAlign=top;align=center;html=1;fontSize=12;fontStyle=0;aspect=fixed;pointerEvents=1;shape=mxgraph.aws4.lake_formation;" vertex="1" parent="1">
          <mxGeometry x="860" y="410" width="78" height="78" as="geometry" />
        </mxCell>

        <!-- IAM Layer -->
        <mxCell id="iam-layer" value="Security &amp;amp; IAM Layer" style="rounded=1;whiteSpace=wrap;html=1;fillColor=#ffe6cc;strokeColor=#d79b00;fontSize=14;fontStyle=1;" vertex="1" parent="1">
          <mxGeometry x="1000" y="350" width="200" height="40" as="geometry" />
        </mxCell>

        <!-- IAM Roles -->
        <mxCell id="iam-roles" value="IAM Roles &amp;amp; Policies&#xa;Zeppelin Notebook Role&#xa;Firehose Role" style="sketch=0;outlineConnect=0;fontColor=#232F3E;gradientColor=none;fillColor=#FF9900;strokeColor=none;dashed=0;verticalLabelPosition=bottom;verticalAlign=top;align=center;html=1;fontSize=12;fontStyle=0;aspect=fixed;pointerEvents=1;shape=mxgraph.aws4.iam_role;" vertex="1" parent="1">
          <mxGeometry x="1060" y="410" width="78" height="78" as="geometry" />
        </mxCell>

        <!-- CloudWatch Logs -->
        <mxCell id="cloudwatch-logs" value="CloudWatch Logs&#xa;Application Logs" style="sketch=0;outlineConnect=0;fontColor=#232F3E;gradientColor=none;fillColor=#F58536;strokeColor=none;dashed=0;verticalLabelPosition=bottom;verticalAlign=top;align=center;html=1;fontSize=12;fontStyle=0;aspect=fixed;pointerEvents=1;shape=mxgraph.aws4.cloudwatch;" vertex="1" parent="1">
          <mxGeometry x="1300" y="140" width="78" height="78" as="geometry" />
        </mxCell>

        <!-- Monitoring Layer -->
        <mxCell id="monitoring-layer" value="Monitoring &amp;amp; Logging" style="rounded=1;whiteSpace=wrap;html=1;fillColor=#f8cecc;strokeColor=#b85450;fontSize=14;fontStyle=1;" vertex="1" parent="1">
          <mxGeometry x="1250" y="80" width="200" height="40" as="geometry" />
        </mxCell>

        <!-- Data Flow Arrows -->
        <!-- EC2 to Kinesis Stream -->
        <mxCell id="flow1" value="Log Data&#xa;JSON Format" style="edgeStyle=orthogonalEdgeStyle;rounded=0;orthogonalLoop=1;jettySize=auto;html=1;fontSize=10;fontColor=#666666;" edge="1" parent="1" source="kinesis-agent" target="kinesis-stream">
          <mxGeometry relative="1" as="geometry">
            <mxPoint x="320" y="255" as="sourcePoint" />
            <mxPoint x="440" y="179" as="targetPoint" />
          </mxGeometry>
        </mxCell>

        <!-- Kinesis Stream to Firehose -->
        <mxCell id="flow2" value="Stream Data" style="edgeStyle=orthogonalEdgeStyle;rounded=0;orthogonalLoop=1;jettySize=auto;html=1;fontSize=10;fontColor=#666666;" edge="1" parent="1" source="kinesis-stream" target="kinesis-firehose">
          <mxGeometry relative="1" as="geometry" />
        </mxCell>

        <!-- Firehose to S3 -->
        <mxCell id="flow3" value="Batch Delivery&#xa;Partitioned" style="edgeStyle=orthogonalEdgeStyle;rounded=0;orthogonalLoop=1;jettySize=auto;html=1;fontSize=10;fontColor=#666666;" edge="1" parent="1" source="kinesis-firehose" target="s3-bucket">
          <mxGeometry relative="1" as="geometry" />
        </mxCell>

        <!-- Zeppelin to Kinesis Stream -->
        <mxCell id="flow4" value="Read Stream&#xa;SQL Queries" style="edgeStyle=orthogonalEdgeStyle;rounded=0;orthogonalLoop=1;jettySize=auto;html=1;fontSize=10;fontColor=#666666;" edge="1" parent="1" source="zeppelin-notebook" target="kinesis-stream">
          <mxGeometry relative="1" as="geometry">
            <mxPoint x="499" y="410" as="sourcePoint" />
            <mxPoint x="499" y="218" as="targetPoint" />
          </mxGeometry>
        </mxCell>

        <!-- Zeppelin to S3 -->
        <mxCell id="flow5" value="Read Data&#xa;Analytics" style="edgeStyle=orthogonalEdgeStyle;rounded=0;orthogonalLoop=1;jettySize=auto;html=1;fontSize=10;fontColor=#666666;dashed=1;" edge="1" parent="1" source="zeppelin-notebook" target="s3-bucket">
          <mxGeometry relative="1" as="geometry">
            <mxPoint x="538" y="449" as="sourcePoint" />
            <mxPoint x="1060" y="179" as="targetPoint" />
          </mxGeometry>
        </mxCell>

        <!-- Zeppelin to Glue Catalog -->
        <mxCell id="flow6" value="Metadata&#xa;Schema" style="edgeStyle=orthogonalEdgeStyle;rounded=0;orthogonalLoop=1;jettySize=auto;html=1;fontSize=10;fontColor=#666666;" edge="1" parent="1" source="zeppelin-notebook" target="glue-catalog">
          <mxGeometry relative="1" as="geometry" />
        </mxCell>

        <!-- JAR Files to Zeppelin -->
        <mxCell id="flow7" value="Flink Connectors&#xa;Dependencies" style="edgeStyle=orthogonalEdgeStyle;rounded=0;orthogonalLoop=1;jettySize=auto;html=1;fontSize=10;fontColor=#666666;dashed=1;" edge="1" parent="1" source="jar-files" target="zeppelin-notebook">
          <mxGeometry relative="1" as="geometry">
            <mxPoint x="1199" y="218" as="sourcePoint" />
            <mxPoint x="538" y="449" as="targetPoint" />
          </mxGeometry>
        </mxCell>

        <!-- Lake Formation to Glue -->
        <mxCell id="flow8" value="Permissions" style="edgeStyle=orthogonalEdgeStyle;rounded=0;orthogonalLoop=1;jettySize=auto;html=1;fontSize=10;fontColor=#666666;dashed=1;" edge="1" parent="1" source="lake-formation" target="glue-catalog">
          <mxGeometry relative="1" as="geometry" />
        </mxCell>

        <!-- CloudWatch connection -->
        <mxCell id="flow9" value="Logs" style="edgeStyle=orthogonalEdgeStyle;rounded=0;orthogonalLoop=1;jettySize=auto;html=1;fontSize=10;fontColor=#666666;dashed=1;" edge="1" parent="1" source="kinesis-firehose" target="cloudwatch-logs">
          <mxGeometry relative="1" as="geometry" />
        </mxCell>

        <!-- Title -->
        <mxCell id="title" value="AWS Log Analytics Demo Architecture" style="text;html=1;strokeColor=none;fillColor=none;align=center;verticalAlign=middle;whiteSpace=wrap;rounded=0;fontSize=20;fontStyle=1;" vertex="1" parent="1">
          <mxGeometry x="677" y="20" width="300" height="30" as="geometry" />
        </mxCell>

        <!-- Legend -->
        <mxCell id="legend-box" value="" style="rounded=1;whiteSpace=wrap;html=1;fillColor=#f5f5f5;strokeColor=#666666;dashed=1;" vertex="1" parent="1">
          <mxGeometry x="80" y="550" width="400" height="180" as="geometry" />
        </mxCell>

        <mxCell id="legend-title" value="Legend" style="text;html=1;strokeColor=none;fillColor=none;align=left;verticalAlign=top;whiteSpace=wrap;rounded=0;fontSize=14;fontStyle=1;" vertex="1" parent="1">
          <mxGeometry x="100" y="570" width="100" height="20" as="geometry" />
        </mxCell>

        <mxCell id="legend1" value="→ Real-time data flow" style="text;html=1;strokeColor=none;fillColor=none;align=left;verticalAlign=middle;whiteSpace=wrap;rounded=0;fontSize=11;" vertex="1" parent="1">
          <mxGeometry x="100" y="600" width="150" height="20" as="geometry" />
        </mxCell>

        <mxCell id="legend2" value="⤍ Batch/Configuration flow" style="text;html=1;strokeColor=none;fillColor=none;align=left;verticalAlign=middle;whiteSpace=wrap;rounded=0;fontSize=11;" vertex="1" parent="1">
          <mxGeometry x="100" y="620" width="170" height="20" as="geometry" />
        </mxCell>

        <mxCell id="legend3" value="• EC2: Generates Apache logs using Python script" style="text;html=1;strokeColor=none;fillColor=none;align=left;verticalAlign=middle;whiteSpace=wrap;rounded=0;fontSize=11;" vertex="1" parent="1">
          <mxGeometry x="100" y="650" width="300" height="20" as="geometry" />
        </mxCell>

        <mxCell id="legend4" value="• Kinesis: Streams logs in real-time to Firehose" style="text;html=1;strokeColor=none;fillColor=none;align=left;verticalAlign=middle;whiteSpace=wrap;rounded=0;fontSize=11;" vertex="1" parent="1">
          <mxGeometry x="100" y="670" width="300" height="20" as="geometry" />
        </mxCell>

        <mxCell id="legend5" value="• S3: Time-partitioned storage for batch analytics" style="text;html=1;strokeColor=none;fillColor=none;align=left;verticalAlign=middle;whiteSpace=wrap;rounded=0;fontSize=11;" vertex="1" parent="1">
          <mxGeometry x="100" y="690" width="300" height="20" as="geometry" />
        </mxCell>

        <mxCell id="legend6" value="• Zeppelin: Interactive analytics with Flink SQL" style="text;html=1;strokeColor=none;fillColor=none;align=left;verticalAlign=middle;whiteSpace=wrap;rounded=0;fontSize=11;" vertex="1" parent="1">
          <mxGeometry x="100" y="710" width="300" height="20" as="geometry" />
        </mxCell>

      </root>
    </mxGraphModel>
  </diagram>
</mxfile>
